<mxfile host="app.diagrams.net" agent="Mozilla/5.0 (Windows NT 10.0; Win64; x64) AppleWebKit/537.36 (KHTML, like Gecko) Chrome/136.0.0.0 Safari/537.36 Edg/136.0.0.0" version="24.8.2">
  <diagram name="Page-1" id="K0TX2bSKWqEnwF2bk5FJ">
    <mxGraphModel dx="1666" dy="815" grid="1" gridSize="10" guides="1" tooltips="1" connect="1" arrows="1" fold="1" page="1" pageScale="1" pageWidth="850" pageHeight="1100" math="0" shadow="0">
      <root>
        <mxCell id="0" />
        <mxCell id="1" parent="0" />
        <mxCell id="8fPwTIcsQ89lP5uHmYI_-13" value="" style="shape=table;startSize=0;container=1;collapsible=0;childLayout=tableLayout;strokeColor=#000000;fillColor=#000000;" vertex="1" parent="1">
          <mxGeometry x="40" y="40" width="760" height="505" as="geometry" />
        </mxCell>
        <mxCell id="8fPwTIcsQ89lP5uHmYI_-14" value="" style="shape=tableRow;horizontal=0;startSize=0;swimlaneHead=0;swimlaneBody=0;strokeColor=inherit;top=0;left=0;bottom=0;right=0;collapsible=0;dropTarget=0;fillColor=none;points=[[0,0.5],[1,0.5]];portConstraint=eastwest;" vertex="1" parent="8fPwTIcsQ89lP5uHmYI_-13">
          <mxGeometry width="760" height="50" as="geometry" />
        </mxCell>
        <mxCell id="8fPwTIcsQ89lP5uHmYI_-15" value="&lt;font style=&quot;font-size: 18px;&quot;&gt;Khách hàng&lt;/font&gt;" style="shape=partialRectangle;html=1;whiteSpace=wrap;connectable=0;strokeColor=inherit;overflow=hidden;fillColor=#FFFF66;top=0;left=0;bottom=0;right=0;pointerEvents=1;" vertex="1" parent="8fPwTIcsQ89lP5uHmYI_-14">
          <mxGeometry width="440" height="50" as="geometry">
            <mxRectangle width="440" height="50" as="alternateBounds" />
          </mxGeometry>
        </mxCell>
        <mxCell id="8fPwTIcsQ89lP5uHmYI_-16" value="&lt;font style=&quot;font-size: 18px;&quot;&gt;Hệ thống&lt;/font&gt;" style="shape=partialRectangle;html=1;whiteSpace=wrap;connectable=0;strokeColor=inherit;overflow=hidden;fillColor=#FFFF66;top=0;left=0;bottom=0;right=0;pointerEvents=1;" vertex="1" parent="8fPwTIcsQ89lP5uHmYI_-14">
          <mxGeometry x="440" width="320" height="50" as="geometry">
            <mxRectangle width="320" height="50" as="alternateBounds" />
          </mxGeometry>
        </mxCell>
        <mxCell id="8fPwTIcsQ89lP5uHmYI_-17" value="" style="shape=tableRow;horizontal=0;startSize=0;swimlaneHead=0;swimlaneBody=0;strokeColor=inherit;top=0;left=0;bottom=0;right=0;collapsible=0;dropTarget=0;fillColor=none;points=[[0,0.5],[1,0.5]];portConstraint=eastwest;" vertex="1" parent="8fPwTIcsQ89lP5uHmYI_-13">
          <mxGeometry y="50" width="760" height="455" as="geometry" />
        </mxCell>
        <mxCell id="8fPwTIcsQ89lP5uHmYI_-18" value="" style="shape=partialRectangle;html=1;whiteSpace=wrap;connectable=0;strokeColor=inherit;overflow=hidden;fillColor=#FFFFFF;top=0;left=0;bottom=0;right=0;pointerEvents=1;" vertex="1" parent="8fPwTIcsQ89lP5uHmYI_-17">
          <mxGeometry width="440" height="455" as="geometry">
            <mxRectangle width="440" height="455" as="alternateBounds" />
          </mxGeometry>
        </mxCell>
        <mxCell id="8fPwTIcsQ89lP5uHmYI_-19" value="" style="shape=partialRectangle;html=1;whiteSpace=wrap;connectable=0;strokeColor=inherit;overflow=hidden;fillColor=#FFFFFF;top=0;left=0;bottom=0;right=0;pointerEvents=1;" vertex="1" parent="8fPwTIcsQ89lP5uHmYI_-17">
          <mxGeometry x="440" width="320" height="455" as="geometry">
            <mxRectangle width="320" height="455" as="alternateBounds" />
          </mxGeometry>
        </mxCell>
        <mxCell id="8fPwTIcsQ89lP5uHmYI_-22" value="" style="edgeStyle=orthogonalEdgeStyle;rounded=0;orthogonalLoop=1;jettySize=auto;html=1;" edge="1" parent="1" source="8fPwTIcsQ89lP5uHmYI_-20" target="8fPwTIcsQ89lP5uHmYI_-21">
          <mxGeometry relative="1" as="geometry" />
        </mxCell>
        <mxCell id="8fPwTIcsQ89lP5uHmYI_-20" value="" style="ellipse;whiteSpace=wrap;html=1;fillColor=#000000;" vertex="1" parent="1">
          <mxGeometry x="145" y="110" width="50" height="50" as="geometry" />
        </mxCell>
        <mxCell id="8fPwTIcsQ89lP5uHmYI_-24" value="" style="edgeStyle=orthogonalEdgeStyle;rounded=0;orthogonalLoop=1;jettySize=auto;html=1;" edge="1" parent="1" source="8fPwTIcsQ89lP5uHmYI_-21" target="8fPwTIcsQ89lP5uHmYI_-23">
          <mxGeometry relative="1" as="geometry" />
        </mxCell>
        <mxCell id="8fPwTIcsQ89lP5uHmYI_-21" value="Chọn mục kiểm tra đơn hàng" style="rounded=1;whiteSpace=wrap;html=1;fillColor=#FFFFCC;strokeColor=#000000;" vertex="1" parent="1">
          <mxGeometry x="80" y="190" width="180" height="60" as="geometry" />
        </mxCell>
        <mxCell id="8fPwTIcsQ89lP5uHmYI_-43" style="edgeStyle=orthogonalEdgeStyle;rounded=0;orthogonalLoop=1;jettySize=auto;html=1;" edge="1" parent="1" source="8fPwTIcsQ89lP5uHmYI_-23" target="8fPwTIcsQ89lP5uHmYI_-25">
          <mxGeometry relative="1" as="geometry" />
        </mxCell>
        <mxCell id="8fPwTIcsQ89lP5uHmYI_-45" style="edgeStyle=orthogonalEdgeStyle;rounded=0;orthogonalLoop=1;jettySize=auto;html=1;entryX=0;entryY=0.5;entryDx=0;entryDy=0;" edge="1" parent="1" source="8fPwTIcsQ89lP5uHmYI_-23" target="8fPwTIcsQ89lP5uHmYI_-28">
          <mxGeometry relative="1" as="geometry">
            <Array as="points">
              <mxPoint x="385" y="335" />
            </Array>
          </mxGeometry>
        </mxCell>
        <mxCell id="8fPwTIcsQ89lP5uHmYI_-23" value="" style="rhombus;whiteSpace=wrap;html=1;" vertex="1" parent="1">
          <mxGeometry x="360" y="195" width="50" height="50" as="geometry" />
        </mxCell>
        <mxCell id="8fPwTIcsQ89lP5uHmYI_-44" value="" style="edgeStyle=orthogonalEdgeStyle;rounded=0;orthogonalLoop=1;jettySize=auto;html=1;" edge="1" parent="1" source="8fPwTIcsQ89lP5uHmYI_-25" target="8fPwTIcsQ89lP5uHmYI_-27">
          <mxGeometry relative="1" as="geometry" />
        </mxCell>
        <mxCell id="8fPwTIcsQ89lP5uHmYI_-25" value="Đưa ra danh sách rỗng" style="rounded=1;whiteSpace=wrap;html=1;fillColor=#FFFFCC;" vertex="1" parent="1">
          <mxGeometry x="520" y="190" width="150" height="60" as="geometry" />
        </mxCell>
        <mxCell id="8fPwTIcsQ89lP5uHmYI_-26" value="" style="ellipse;whiteSpace=wrap;html=1;" vertex="1" parent="1">
          <mxGeometry x="700" y="195" width="50" height="50" as="geometry" />
        </mxCell>
        <mxCell id="8fPwTIcsQ89lP5uHmYI_-27" value="" style="ellipse;whiteSpace=wrap;html=1;fillColor=#000000;" vertex="1" parent="1">
          <mxGeometry x="705" y="200" width="40" height="40" as="geometry" />
        </mxCell>
        <mxCell id="8fPwTIcsQ89lP5uHmYI_-46" value="" style="edgeStyle=orthogonalEdgeStyle;rounded=0;orthogonalLoop=1;jettySize=auto;html=1;" edge="1" parent="1" source="8fPwTIcsQ89lP5uHmYI_-28" target="8fPwTIcsQ89lP5uHmYI_-37">
          <mxGeometry relative="1" as="geometry" />
        </mxCell>
        <mxCell id="8fPwTIcsQ89lP5uHmYI_-28" value="Hiển thị trạng thái và chi tiết của đơn hàng đã đặt mua" style="rounded=1;whiteSpace=wrap;html=1;fillColor=#FFFFCC;" vertex="1" parent="1">
          <mxGeometry x="520" y="300" width="210" height="70" as="geometry" />
        </mxCell>
        <mxCell id="8fPwTIcsQ89lP5uHmYI_-41" value="" style="ellipse;whiteSpace=wrap;html=1;" vertex="1" parent="1">
          <mxGeometry x="600" y="420" width="50" height="50" as="geometry" />
        </mxCell>
        <mxCell id="8fPwTIcsQ89lP5uHmYI_-37" value="" style="ellipse;whiteSpace=wrap;html=1;fillColor=#000000;" vertex="1" parent="1">
          <mxGeometry x="605" y="425" width="40" height="40" as="geometry" />
        </mxCell>
        <mxCell id="8fPwTIcsQ89lP5uHmYI_-47" value="No" style="text;html=1;align=center;verticalAlign=middle;whiteSpace=wrap;rounded=0;" vertex="1" parent="1">
          <mxGeometry x="425" y="190" width="60" height="30" as="geometry" />
        </mxCell>
        <mxCell id="8fPwTIcsQ89lP5uHmYI_-48" value="Yes" style="text;html=1;align=center;verticalAlign=middle;whiteSpace=wrap;rounded=0;" vertex="1" parent="1">
          <mxGeometry x="420" y="310" width="60" height="30" as="geometry" />
        </mxCell>
      </root>
    </mxGraphModel>
  </diagram>
</mxfile>
